P3
# writePPMTest.ppm
4
4
255
0  200  0
200  0  0
0  200  0
200  0  0
0  200  0
200  0  0
0  200  0
200  0  0
200  0  0
0  200  0
200  0  0
0  200  0
200  0  0
0  200  0
200  0  0
0  200  0